# xmcd CD database file generated by OrangeCD 5.2
#
# Track frame offsets:
#	150
#	14118
#	27154
#	45528
#	64401
#	81882
#	94390
#	106841
#	118005
#	133489
#	144817
#	153063
#	166320
#	178742
#	198834
#	214741
#	225425
#	238673
#	250193
#	262644
#	276362
#	290032
#	292662
#	307350
#	310028
#	324370
#
# Disc length: 4440 seconds
#
# Revision: 0
# Processed by: cddbd v1.5.1PL2 Copyright (c) Steve Scherf et al.
# Submitted via: OrangeCD 5.2
#
DISCID=7411561a
DTITLE=Johnny Cash - Hippest Grand-Dad Around
DYEAR=1900
DGENRE=Country
TTITLE0=Folsom Prison Blues
TTITLE1=Get Rhythm
TTITLE2=Sunday Morning Coming Down
TTITLE3=(Ghost) Riders In The Sky
TTITLE4=Oh Bury Me Not
TTITLE5=Ring Of Fire
TTITLE6=Bottom Of The Mountain
TTITLE7=Dark As A Dungeon
TTITLE8=Nobody's Darling But Mine
TTITLE9=I Walk The Line
TTITLE10=Guess Things Happen That Way
TTITLE11=There You Go
TTITLE12=Why Me Lord
TTITLE13=Orange Blossom Special
TTITLE14=Bird On A Wire
TTITLE15=Delia's Gone
TTITLE16=Tennessee Stud
TTITLE17=The Beast In Me
TTITLE18=Redemption
TTITLE19=Johnny Cash and June Carter - Jackson
TTITLE20=Johnny Cash and June Carter - If I Were A Carpenter
TTITLE21=Tuning
TTITLE22=Doin' My Time
TTITLE23=Tuning
TTITLE24=Ballad Of Ira Hayes
TTITLE25=The Next Time I'm In Town
EXTD=Recorded Live In The Hague, Netherlands, September 17 1995
EXTT0=
EXTT1=
EXTT2=
EXTT3=
EXTT4=
EXTT5=
EXTT6=
EXTT7=
EXTT8=
EXTT9=
EXTT10=
EXTT11=
EXTT12=
EXTT13=
EXTT14=
EXTT15=
EXTT16=
EXTT17=
EXTT18=
EXTT19=
EXTT20=
EXTT21=
EXTT22=
EXTT23=
EXTT24=
EXTT25=
PLAYORDER=
